<?xml version="1.0" standalone="no"?>
<!DOCTYPE svg PUBLIC "-//W3C//DTD SVG 1.1//EN" "http://www.w3.org/Graphics/SVG/1.1/DTD/svg11.dtd" >
<svg xmlns="http://www.w3.org/2000/svg">
<metadata></metadata>
<defs>
<font id="imakiitalic" horiz-adv-x="1350" >
<font-face units-per-em="2048" ascent="1638" descent="-410" />
<missing-glyph horiz-adv-x="900" />
<glyph horiz-adv-x="2048" />
<glyph horiz-adv-x="2048" />
<glyph unicode="&#xd;" horiz-adv-x="508" />
<glyph unicode=" "  horiz-adv-x="900" />
<glyph unicode="&#x09;" horiz-adv-x="900" />
<glyph unicode="&#xa0;" horiz-adv-x="900" />
<glyph unicode="!" horiz-adv-x="500" d="M10 31q0 9 3 19l41 150q13 50 63 50h250q40 0 40 -31q0 -9 -3 -19l-41 -150q-13 -50 -63 -50h-250q-40 0 -40 31zM94 350l281 1050h350l-281 -1050h-350z" />
<glyph unicode="&#x22;" horiz-adv-x="950" d="M305 1086q0 50 17 114l40 150q13 50 63 50h250q40 0 40 -31q0 -9 -3 -19l-107 -400q-14 -50 -64 -50q-236 0 -236 186zM755 1086q0 50 17 114l40 150q13 50 63 50h250q40 0 40 -31q0 -9 -3 -19l-107 -400q-14 -50 -64 -50q-236 0 -236 186z" />
<glyph unicode="#" horiz-adv-x="1450" d="M107 400l54 200h200l53 200h-200l54 200h200l54 200h350l-54 -200h200l54 200h350l-54 -200h200l-54 -200h-200l-53 -200h200l-54 -200h-200l-53 -200h-350l53 200h-200l-53 -200h-350l53 200h-200zM711 600h200l53 200h-200z" />
<glyph unicode="$" horiz-adv-x="1400" d="M54 200l53 200h750q150 0 177 100l13 50q4 13 4 25q0 68 -127 75h-300q-381 0 -381 216q0 38 12 84q78 291 530 300l40 150h350l-40 -150h450l-54 -200h-750q-150 0 -176 -100q-4 -15 -4 -28q0 -72 127 -72h300q381 0 381 -216q0 -38 -12 -84l-13 -50q-80 -300 -530 -300 l-54 -200h-350l54 200h-450z" />
<glyph unicode="%" horiz-adv-x="2150" d="M205 699q0 67 23 151l27 100q107 400 507 400h450q220 0 259 -158l204 208h400l-441 -450h271q267 0 267 -234q0 -72 -25 -166l-26 -100q-108 -400 -508 -400h-400q-255 0 -304 163l-209 -213h-400l442 450h-221q-316 0 -316 249zM568 785q0 -135 206 -135q250 0 304 200 l27 100q9 35 9 64q0 136 -206 136q-250 0 -303 -200l-27 -100q-10 -36 -10 -65zM1261 385q0 -135 206 -135q250 0 304 200l26 100q10 36 10 65q0 135 -206 135q-250 0 -304 -200l-26 -100q-10 -36 -10 -65z" />
<glyph unicode="&#x26;" horiz-adv-x="1400" d="M122 420q0 37 12 80l13 50q31 116 138 196q-42 48 -42 120q0 39 12 84q78 292 530 300l40 150h350l-40 -150h450l-54 -200h-750q-150 0 -176 -100q-4 -15 -4 -28q0 -72 127 -72h350l-54 -200h-350q-150 0 -177 -100l-13 -50q-4 -15 -4 -28q0 -72 127 -72h750l-53 -200 h-450l-54 -200h-350l54 200q-382 8 -382 220z" />
<glyph unicode="'" horiz-adv-x="500" d="M305 1086q0 50 17 114l40 150q13 50 63 50h250q40 0 40 -31q0 -9 -3 -19l-107 -400q-14 -50 -64 -50q-236 0 -236 186z" />
<glyph unicode="(" horiz-adv-x="850" d="M89 206q0 127 45 294l107 400q188 700 788 700h100l-54 -200q-350 0 -484 -500l-107 -400q-37 -138 -37 -239q0 -261 253 -261l-54 -200h-100q-457 0 -457 406z" />
<glyph unicode=")" horiz-adv-x="850" d="M-54 -200l54 200q350 0 484 500l107 400q37 138 37 239q0 261 -253 261l54 200h100q457 0 457 -406q0 -127 -45 -294l-107 -400q-188 -700 -788 -700h-100z" />
<glyph unicode="*" horiz-adv-x="1100" d="M214 800l273 150l-192 150l167 250l165 -129l48 179h350l-48 -179l235 129l33 -250l-272 -150l191 -150l-167 -250l-165 129l-48 -179h-350l48 179l-235 -129z" />
<glyph unicode="+" horiz-adv-x="1300" d="M161 600l53 200h400l108 400h350l-108 -400h400l-53 -200h-400l-107 -400h-350l107 400h-400z" />
<glyph unicode="," horiz-adv-x="500" d="M-4 -63q0 50 17 113l41 150q13 50 63 50h250q40 0 40 -31q0 -9 -3 -19l-108 -400q-13 -50 -63 -50q-237 0 -237 187z" />
<glyph unicode="-" horiz-adv-x="1300" d="M161 600l53 200h1150l-53 -200h-1150z" />
<glyph unicode="." horiz-adv-x="500" d="M10 31q0 9 3 19l41 150q13 50 63 50h250q40 0 40 -31q0 -9 -3 -19l-41 -150q-13 -50 -63 -50h-250q-40 0 -40 31z" />
<glyph unicode="/" horiz-adv-x="1450" d="M-50 0l1375 1400h400l-1375 -1400h-400z" />
<glyph unicode="0" horiz-adv-x="1550" d="M144 407q0 127 44 293q188 700 788 700h200q457 0 457 -407q0 -127 -44 -293q-188 -700 -788 -700h-200q-457 0 -457 407zM502 461q0 -261 253 -261q350 0 484 500q37 138 37 239q0 261 -253 261q-350 0 -484 -500q-37 -138 -37 -239z" />
<glyph unicode="1" horiz-adv-x="600" d="M100 0l322 1200h-100l53 200h450l-375 -1400h-350z" />
<glyph unicode="2" d="M0 0l107 400q107 400 507 400h200q250 0 304 200q10 36 10 65q0 135 -206 135h-600l53 200h800q316 0 316 -249q0 -67 -23 -151q-107 -400 -507 -400h-200q-250 0 -304 -200l-53 -200h850l-54 -200h-1200z" />
<glyph unicode="3" d="M0 0l54 200h600q250 0 303 200q10 36 10 65q0 135 -206 135h-250l53 200h250q250 0 304 200q10 36 10 65q0 135 -206 135h-600l53 200h800q316 0 316 -249q0 -67 -23 -151q-54 -200 -180 -300q42 -57 42 -148q0 -67 -23 -152q-107 -400 -507 -400h-800z" />
<glyph unicode="4" d="M160 600l215 800h350l-161 -600h500l81 300h350l-295 -1100h-349l160 600h-851z" />
<glyph unicode="5" d="M0 0l54 200h600q250 0 303 200q10 36 10 65q0 135 -206 135h-600l214 800h1200l-53 -200h-850l-108 -400h450q316 0 316 -249q0 -67 -23 -151q-107 -400 -507 -400h-800z" />
<glyph unicode="6" horiz-adv-x="1500" d="M143 406q0 127 45 294q187 700 787 700h750l-53 -200h-650q-271 0 -413 -300h582q316 0 316 -249q0 -67 -23 -151l-27 -100q-107 -400 -507 -400h-350q-457 0 -457 406zM501 461q0 -261 253 -261h50q250 0 303 200l27 100q10 36 10 65q0 135 -206 135h-400 q-37 -138 -37 -239z" />
<glyph unicode="7" d="M200 0l107 400q107 400 507 400q250 0 304 200l54 200h-850l53 200h1200l-107 -400q-107 -400 -507 -400q-250 0 -304 -200l-107 -400h-350z" />
<glyph unicode="8" d="M84 249q0 67 23 151q54 200 181 300q-43 58 -43 149q0 67 23 151q107 400 507 400h400q316 0 316 -249q0 -67 -23 -151q-54 -200 -180 -300q42 -57 42 -148q0 -67 -23 -152q-107 -400 -507 -400h-400q-316 0 -316 249zM448 336q0 -136 206 -136q250 0 303 200 q10 36 10 65q0 135 -206 135q-250 0 -304 -200q-9 -35 -9 -64zM608 935q0 -135 206 -135q250 0 304 200q10 36 10 65q0 135 -206 135q-250 0 -304 -200q-10 -36 -10 -65z" />
<glyph unicode="9" horiz-adv-x="1500" d="M0 0l54 200h650q271 0 412 300h-582q-316 0 -316 249q0 67 23 151l27 100q107 400 507 400h350q457 0 457 -407q0 -127 -44 -293q-188 -700 -788 -700h-750zM582 836q0 -136 206 -136h400q37 138 37 239q0 261 -253 261h-50q-250 0 -304 -200l-27 -100q-9 -35 -9 -64z " />
<glyph unicode=":" horiz-adv-x="500" d="M10 31q0 9 3 19l41 150q13 50 63 50h250q40 0 40 -31q0 -9 -3 -19l-41 -150q-13 -50 -63 -50h-250q-40 0 -40 31zM171 631q0 9 3 19l40 150q14 50 64 50h250q39 0 39 -31q0 -8 -3 -19l-40 -150q-13 -50 -63 -50h-250q-40 0 -40 31z" />
<glyph unicode=";" horiz-adv-x="500" d="M-4 -63q0 50 17 113l41 150q13 50 63 50h250q40 0 40 -31q0 -9 -3 -19l-108 -400q-13 -50 -63 -50q-237 0 -237 187zM171 631q0 9 3 19l40 150q14 50 64 50h250q39 0 39 -31q0 -8 -3 -19l-40 -150q-13 -50 -63 -50h-250q-40 0 -40 31z" />
<glyph unicode="&#x3c;" horiz-adv-x="1000" d="M194 725l591 525h400l-591 -525l310 -525h-400z" />
<glyph unicode="=" horiz-adv-x="1300" d="M80 300l54 200h1150l-54 -200h-1150zM241 900l54 200h1150l-54 -200h-1150z" />
<glyph unicode="&#x3e;" horiz-adv-x="1000" d="M54 200l590 525l-309 525h400l309 -525l-590 -525h-400z" />
<glyph unicode="?" d="M210 31q0 9 3 19l41 150q13 50 63 50h250q40 0 40 -31q0 -9 -3 -19l-41 -150q-13 -50 -63 -50h-250q-40 0 -40 31zM294 350l13 50q107 400 507 400q250 0 304 200q10 36 10 65q0 135 -206 135h-600l53 200h800q316 0 316 -249q0 -67 -23 -151q-107 -400 -507 -400 q-250 0 -304 -200l-13 -50h-350z" />
<glyph unicode="@" horiz-adv-x="1550" d="M143 406q0 127 45 294q187 700 787 700h350q377 0 377 -228q0 -44 -14 -97l-194 -725h-500q-381 0 -381 218q0 40 13 87l13 51q79 294 529 294q150 0 177 100q4 15 4 28q0 72 -127 72h-200q-350 0 -484 -500q-37 -138 -37 -239q0 -261 253 -261h700l-54 -200h-800 q-457 0 -457 406zM972 626q0 -72 125 -76h100l68 251l-101 -1q-150 0 -175 -95l-13 -50q-4 -15 -4 -29z" />
<glyph unicode="A" horiz-adv-x="1500" d="M0 0l188 700q187 700 787 700h750l-375 -1400h-350l107 400h-650l-107 -400h-350zM511 600h650l161 600h-300q-350 0 -484 -500z" />
<glyph unicode="B" d="M0 0l375 1400h800q316 0 316 -249q0 -67 -23 -151q-54 -200 -180 -300q42 -57 42 -148q0 -67 -23 -152q-107 -400 -507 -400h-800zM404 200h250q250 0 303 200q10 36 10 65q0 135 -206 135h-250zM564 800h250q250 0 304 200q10 36 10 65q0 135 -206 135h-250z" />
<glyph unicode="C" d="M143 406q0 127 45 294q187 700 787 700h600l-53 -200h-500q-350 0 -484 -500q-37 -138 -37 -239q0 -261 253 -261h500l-54 -200h-600q-457 0 -457 406z" />
<glyph unicode="D" horiz-adv-x="1500" d="M1 0l374 1400h750q457 0 457 -407q0 -127 -44 -293q-188 -700 -788 -700h-749zM404 200h300q350 0 484 500q37 138 37 239q0 261 -253 261h-300z" />
<glyph unicode="E" d="M143 406q0 127 45 294q187 700 787 700h600l-53 -200h-500q-313 0 -454 -400h746l-53 -200h-746q-14 -76 -14 -138q0 -262 253 -262h500l-54 -200h-600q-457 0 -457 406z" />
<glyph unicode="F" d="M0 0l188 700q187 700 787 700h600l-53 -200h-500q-313 0 -454 -400h746l-53 -200h-750l-161 -600h-350z" />
<glyph unicode="G" horiz-adv-x="1500" d="M143 406q0 127 45 294q187 700 787 700h750l-53 -200h-650q-350 0 -484 -500q-37 -138 -37 -239q0 -261 253 -261h300l107 400h-300l53 200h650l-214 -800h-750q-457 0 -457 406z" />
<glyph unicode="H" horiz-adv-x="1450" d="M1 0l374 1400h350l-161 -600h600l161 600h350l-375 -1400h-350l161 600h-600l-161 -600h-349z" />
<glyph unicode="I" horiz-adv-x="500" d="M1 0l374 1400h350l-375 -1400h-349z" />
<glyph unicode="J" horiz-adv-x="850" d="M0 0l54 200q350 0 484 500l187 700h350l-187 -700q-188 -700 -788 -700h-100z" />
<glyph unicode="K" d="M1 0l160 598h-1l215 802h350l-161 -600h250q250 0 304 200l107 398l350 2l-107 -400q-54 -201 -182 -301q44 -58 44 -150q0 -67 -23 -151l-107 -397l-350 -1l107 398q9 35 9 64q0 136 -206 136h-250l-160 -598h-349z" />
<glyph unicode="L" d="M143 406q0 127 45 294l187 700h350l-187 -700q-37 -138 -37 -239q0 -261 253 -261h500l-54 -200h-600q-457 0 -457 406z" />
<glyph unicode="M" horiz-adv-x="2100" d="M1 0l374 1400h1350q457 0 457 -407q0 -127 -44 -293l-188 -700h-350l188 700q37 138 37 239q0 261 -253 261h-100l-322 -1200h-349l321 1200h-450l-322 -1200h-349z" />
<glyph unicode="N" horiz-adv-x="1500" d="M1 0l374 1400h750q457 0 457 -407q0 -127 -44 -293l-188 -700h-350l188 700q37 138 37 239q0 261 -253 261h-300l-322 -1200h-349z" />
<glyph unicode="O" horiz-adv-x="1550" d="M144 407q0 127 44 293q188 700 788 700h200q457 0 457 -407q0 -127 -44 -293q-188 -700 -788 -700h-200q-457 0 -457 407zM502 461q0 -261 253 -261q350 0 484 500q37 138 37 239q0 261 -253 261q-350 0 -484 -500q-37 -138 -37 -239z" />
<glyph unicode="P" d="M1 0l374 1400h800q316 0 316 -249q0 -67 -23 -151q-107 -400 -507 -400h-450l-161 -600h-349zM564 800h250q250 0 304 200q10 36 10 65q0 135 -206 135h-250z" />
<glyph unicode="Q" horiz-adv-x="1550" d="M144 407q0 127 44 293q188 700 788 700h200q457 0 457 -407q0 -127 -44 -293q-91 -337 -277 -512l138 -188h-400l-21 29q-106 -29 -228 -29h-200q-457 0 -457 407zM502 461q0 -261 253 -261q71 0 133 21l-277 379h400l121 -166q64 108 107 266q37 138 37 239 q0 261 -253 261q-350 0 -484 -500q-37 -138 -37 -239z" />
<glyph unicode="R" d="M1 0l374 1400h800q316 0 316 -249q0 -67 -23 -151q-54 -201 -182 -301q44 -58 44 -150q0 -67 -23 -151l-107 -397l-350 -1l107 398q9 35 9 64q0 136 -206 136h-250l-160 -598h-349zM564 800h250q250 0 304 200q10 36 10 65q0 135 -206 135h-250z" />
<glyph unicode="S" d="M0 0l54 200h600q250 0 303 200q10 36 10 65q0 135 -206 135h-200q-316 0 -316 249q0 67 23 151q107 400 507 400h800l-53 -200h-600q-250 0 -304 -200q-10 -36 -10 -65q0 -135 206 -135h200q316 0 316 -249q0 -67 -23 -151q-107 -400 -507 -400h-800z" />
<glyph unicode="T" horiz-adv-x="1400" d="M322 1200l53 200h1250l-53 -200h-450l-322 -1200h-349l321 1200h-450z" />
<glyph unicode="U" horiz-adv-x="1550" d="M144 407q0 127 44 293l187 701l350 -1l-187 -700h1q-37 -138 -37 -239q0 -261 253 -261q350 0 484 500l186 699l350 1l-186 -700q-188 -700 -788 -700h-200q-457 0 -457 407z" />
<glyph unicode="V" horiz-adv-x="1550" d="M188 700l187 701l350 -1l-162 -600h1l216 -500l484 500l161 599l350 1l-186 -700l-690 -700h-399z" />
<glyph unicode="W" horiz-adv-x="2100" d="M143 406q0 127 45 294l187 700h350l-187 -700q-37 -138 -37 -239q0 -261 253 -261h100l321 1200h349l-320 -1200h450l321 1200h349l-374 -1400h-1350q-457 0 -457 406z" />
<glyph unicode="X" horiz-adv-x="1450" d="M-50 0l688 700l-313 700h400l188 -420l412 420h400l-687 -700l312 -700h-400l-187 420l-413 -420h-400z" />
<glyph unicode="Y" horiz-adv-x="1400" d="M218 749q0 67 23 151l134 500h350l-134 -500q-9 -35 -9 -64q0 -136 206 -136h50q250 0 303 200l134 500h350l-134 -500q-107 -400 -507 -400h-50l-134 -500h-349l133 500h-49q-317 0 -317 249z" />
<glyph unicode="Z" horiz-adv-x="1450" d="M0 0l54 200l1118 1000h-850l53 200h1300l-53 -200l-1118 -1000h850l-54 -200h-1300z" />
<glyph unicode="[" horiz-adv-x="850" d="M-54 -200l483 1800h700l-54 -200h-350l-375 -1400h350l-54 -200h-700z" />
<glyph unicode="\" horiz-adv-x="1450" d="M325 1400h400l625 -1400h-400z" />
<glyph unicode="]" horiz-adv-x="850" d="M-54 -200l54 200h350l375 1400h-350l54 200h700l-483 -1800h-700z" />
<glyph unicode="^" horiz-adv-x="1150" d="M402 1500l484 500h300l216 -500h-350l-96 200l-204 -200h-350z" />
<glyph unicode="_" horiz-adv-x="1500" d="M-54 -200l55 200h1499l-54 -200h-1500z" />
<glyph unicode="`" horiz-adv-x="800" d="M523 1950q13 50 63 50q450 0 479 -450q-13 -50 -63 -50q-450 0 -479 450z" />
<glyph unicode="a" d="M68 216q0 39 12 84l14 51q79 294 529 294h250q150 0 178 105q4 15 4 28q0 72 -127 72h-700l53 200h750q377 0 377 -228q0 -44 -14 -97l-194 -725h-750q-382 0 -382 216zM426 273q0 -73 128 -73h350l67 251l-350 -1q-152 -5 -177 -100l-14 -50q-4 -15 -4 -27z" />
<glyph unicode="b" d="M0 0l376 1400h349l-94 -350h450q316 0 316 -249q0 -67 -23 -151l-67 -250q-107 -400 -507 -400h-800zM404 200h250q250 0 303 200l67 250q10 36 10 65q0 135 -206 135h-250z" />
<glyph unicode="c" horiz-adv-x="1200" d="M84 249q0 67 23 151l67 250q107 400 507 400h651l-53 -200h-451q-250 0 -304 -200l-67 -250q-9 -35 -9 -64q0 -136 206 -136h450l-53 -200h-651q-316 0 -316 249z" />
<glyph unicode="d" d="M84 249q0 67 23 151l67 250q107 400 507 400h450l94 350h349l-374 -1400h-800q-316 0 -316 249zM448 336q0 -136 206 -136h250l174 650h-250q-250 0 -304 -200l-67 -250q-9 -35 -9 -64z" />
<glyph unicode="e" d="M73 228q0 44 14 97l114 425q80 300 480 300h350q382 0 382 -216q0 -39 -12 -84l-13 -50q-81 -300 -531 -300h-250q-150 0 -177 -100q-4 -15 -4 -27q0 -73 128 -73h700l-54 -200h-750q-377 0 -377 228zM509 595q49 5 102 5h250q150 0 177 100l13 50q4 15 4 28 q0 72 -127 72h-200q-150 0 -178 -102z" />
<glyph unicode="f" horiz-adv-x="900" d="M150 0l201 750h-150l54 200h150l13 50q107 400 507 400h200l-53 -200q-250 0 -304 -200l-13 -50h150l-54 -200h-150l-201 -750h-350z" />
<glyph unicode="g" d="M84 249q0 67 23 151l67 250q107 400 507 400h800l-281 -1050q-107 -400 -507 -400h-600l53 200h400q250 0 304 200h-450q-316 0 -316 249zM448 336q0 -136 206 -136h250l174 650h-250q-250 0 -304 -200l-67 -250q-9 -35 -9 -64z" />
<glyph unicode="h" d="M0 0l376 1400h349l-94 -350h450q316 0 316 -249q0 -67 -23 -151l-174 -650l-350 1l174 649q10 36 10 65q0 135 -206 135h-250l-228 -850h-350z" />
<glyph unicode="i" horiz-adv-x="500" d="M0 0l281 1050h350l-281 -1050h-350zM319 1181q0 8 3 19l40 150q13 50 63 50h250q40 0 40 -31q0 -9 -3 -19l-40 -150q-14 -50 -64 -50h-250q-39 0 -39 31z" />
<glyph unicode="j" horiz-adv-x="500" d="M-357 -400l53 200q250 0 304 200l281 1050h350l-281 -1050q-107 -400 -507 -400h-200zM319 1181q0 8 3 19l40 150q13 50 63 50h250q40 0 40 -31q0 -9 -3 -19l-40 -150q-14 -50 -64 -50h-250q-39 0 -39 31z" />
<glyph unicode="k" d="M0 0l80 300l296 1100h349l-212 -791l618 441h400l-786 -561l505 -489h-400l-335 325l-99 -77l-66 -248h-350z" />
<glyph unicode="l" horiz-adv-x="750" d="M84 249q0 67 23 151l268 1000h350l-268 -1000q-9 -35 -9 -64q0 -136 206 -136l-54 -200h-200q-316 0 -316 249z" />
<glyph unicode="m" horiz-adv-x="1900" d="M0 0l281 1050h1350q316 0 316 -249q0 -67 -23 -151l-174 -650l-350 1l174 649q10 36 10 65q0 135 -206 135h-100l-228 -850h-350l228 850h-350l-228 -850h-350z" />
<glyph unicode="n" d="M0 0l281 1050h800q316 0 316 -249q0 -67 -23 -151l-174 -650l-350 1l174 649q10 36 10 65q0 135 -206 135h-250l-228 -850h-350z" />
<glyph unicode="o" d="M84 249q0 67 23 151l67 250q107 400 507 400h450q268 0 268 -235q0 -71 -25 -165l-67 -250q-107 -400 -507 -400h-400q-316 0 -316 249zM448 336q0 -136 206 -136q250 0 303 200l67 250q10 36 10 65q0 135 -206 135q-250 0 -304 -200l-67 -250q-9 -35 -9 -64z" />
<glyph unicode="p" d="M-93 -350l374 1400h800q316 0 316 -249q0 -67 -23 -151l-67 -250q-107 -400 -507 -400h-450l-94 -350h-349zM404 200h250q250 0 303 200l67 250q10 36 10 65q0 135 -206 135h-250z" />
<glyph unicode="q" d="M84 249q0 67 23 151l67 250q107 400 507 400h800l-376 -1400h-349l94 350h-450q-316 0 -316 249zM448 336q0 -136 206 -136h250l174 650h-250q-250 0 -304 -200l-67 -250q-9 -35 -9 -64z" />
<glyph unicode="r" d="M0 0l281 1050h800q316 0 316 -249q0 -67 -23 -151h-350q10 36 10 65q0 135 -206 135h-250l-228 -850h-350z" />
<glyph unicode="s" d="M0 0l54 200h700q150 0 176 100l14 50q4 15 4 28q0 72 -127 72h-250q-382 0 -382 216q0 39 12 84q80 300 530 300h750l-53 -200h-700q-150 0 -177 -100q-4 -15 -4 -28q0 -72 127 -72h250q382 0 382 -216q0 -39 -12 -84l-14 -50q-80 -300 -530 -300h-750z" />
<glyph unicode="t" horiz-adv-x="900" d="M228 850l53 200h150l54 200h350l-54 -200h150l-53 -200h-150l-121 -450q-9 -35 -9 -64q0 -136 206 -136l-54 -200h-200q-316 0 -316 249q0 67 23 151l121 450h-150z" />
<glyph unicode="u" d="M84 249q0 67 23 151l174 650h350l-174 -650q-9 -35 -9 -64q0 -136 206 -136q250 0 303 200l174 650h350l-174 -650q-107 -400 -507 -400h-400q-316 0 -316 249z" />
<glyph unicode="v" d="M231 1050h350l99 -750l501 750h350l-725 -1050h-406z" />
<glyph unicode="w" horiz-adv-x="1900" d="M84 249q0 67 23 151l174 650l350 -1l-174 -649q-9 -35 -9 -64q0 -136 206 -136h100l227 850h350l-227 -850h100q250 0 303 200l174 650h350l-174 -650q-107 -400 -507 -400h-950q-316 0 -316 249z" />
<glyph unicode="x" d="M-50 0l591 525l-310 525h400l172 -292l328 292h400l-590 -525l309 -525h-400l-172 292l-328 -292h-400z" />
<glyph unicode="y" d="M84 249q0 67 23 151l174 649l350 -1l-174 -648q-9 -35 -9 -64q0 -136 206 -136h250l227 850h350l-281 -1050q-107 -400 -507 -400h-600l53 200h400q250 0 304 200h-450q-316 0 -316 249z" />
<glyph unicode="z" d="M0 0l54 200l974 650h-800l53 200h1200l-53 -200l-974 -650h800l-54 -200h-1200z" />
<glyph unicode="{" horiz-adv-x="1300" d="M0 951v49q0 200 25 450h10q173 -328 180 -335q35 35 122.5 60t138.5 25h148q51 0 138.5 -25t122.5 -60q7 7 180 335h10q25 -250 25 -450v-49q0 -126 -25 -176q-100 -50 -125 -75q-125 -100 -160 -210q35 -165 35 -239v-26q0 -100 -36 -215l-14 -10q0 275 -50 300 q-25 25 -175 26q-150 -1 -175 -26q-50 -25 -50 -300l-14 10q-36 115 -36 215v26q0 74 35 239q-35 110 -160 210q-25 25 -125 75q-25 50 -25 176zM40 650v35q61 -32 71 -49q-15 -61 -15 -136h-3q-53 60 -53 150zM40 1240q10 -275 60 -315q25 50 75 100l10 15 q-116 207 -137 322q-7 -76 -8 -122zM126 544v4q0 70 15 70q48 -44 48 -48q-22 -64 -22 -115v-11h-4q-37 30 -37 100zM175 875q50 -100 100 -125q150 -100 190 -115l25 175zM200 448v29q0 67 15 67q34 -40 48 -67q-24 -54 -30 -107h-4q-29 34 -29 78zM610 810l25 -175 q40 15 190 115q50 25 100 125zM837 477q14 27 48 67q15 0 15 -67v-29q0 -44 -29 -78h-4q-6 53 -30 107zM911 570q0 4 48 48q15 0 15 -70v-4q0 -70 -37 -100h-3v11q0 51 -23 115zM915 1040l10 -15q50 -50 75 -100q50 40 60 315q-1 46 -8 122q-21 -115 -137 -322zM989 636 q10 17 71 49v-35q0 -90 -52 -150h-4q0 75 -15 136z" />
<glyph unicode="|" horiz-adv-x="500" d="M-54 -200l483 1800h350l-483 -1800h-350z" />
<glyph unicode="}" horiz-adv-x="1400" d="M10 1315q47 33 63 79l8 4q59 -38 111 -114v-16q-27 -36 -56 -36q-26 56 -63 56q-63 18 -63 27zM50 785v15q0 125 61 285q88 -85 239 -235q26 -25 140 -50l11 -25q-1 -75 -76 -175q-65 -60 -150 -60h-25q-75 10 -175 160q-25 50 -25 85zM113 537l4 8q43 -18 130 -39l4 -8 v-40q0 -53 -8 -87h-4q-82 99 -126 166zM150 660q65 -69 126 -69l24 -1q84 10 140 175q-90 -105 -165 -114l-35 -1q-35 1 -75 24zM165 1190l70 70l65 -60l25 10q60 -160 75 -185q25 0 25 15q-50 110 -126 320q114 93 301 93t301 -93q-76 -210 -126 -320q0 -15 25 -15 q15 25 75 185l25 -10l65 60l70 -70l-10 -5q-65 -25 -65 -45q0 -26 30 -56l10 -9q-75 -74 -200 -210q-140 -40 -140 -54q0 -47 15 -111q35 -125 225 -225q10 -15 14 -176l-3 -15l-70 42q-1 74 -2 109l-24 25l-15 -1q-65 -84 -100 -84q-10 -125 -11 -160q-65 -40 -79 -215h-20 q-14 175 -79 215q-1 35 -11 160q-35 0 -100 84l-15 1l-24 -25q-1 -35 -2 -109l-70 -42l-3 15q4 161 14 176q190 100 225 225q15 64 15 111q0 14 -140 54q-125 136 -200 210l10 9q30 30 30 56q0 20 -65 45zM500 975q0 -25 24 -25h152q24 0 24 25t-25 26h-150q-25 -1 -25 -26z M500 1075q0 -25 24 -25h152q24 0 24 25t-25 26h-150q-25 -1 -25 -26zM500 1174q0 -25 24 -25h152q24 0 24 25t-25 26h-150q-25 -1 -25 -26zM500 1275q0 -25 24 -25h152q24 0 24 25t-25 26h-150q-25 -1 -25 -26zM699 775l11 25q114 25 140 50q151 150 239 235 q61 -160 61 -285v-15q0 -35 -25 -85q-100 -150 -175 -160h-25q-85 0 -150 60q-75 100 -76 175zM760 765q56 -165 140 -175l24 1q61 0 126 69l-15 14q-40 -23 -75 -24l-35 1q-75 9 -165 114zM949 458v40l4 8q87 21 130 39l4 -8q-44 -67 -126 -166h-4q-8 34 -8 87zM1008 1268 v16q52 76 111 114l8 -4q16 -46 63 -79q0 -9 -63 -27q-37 0 -63 -56q-29 0 -56 36z" />
<glyph unicode="~" horiz-adv-x="1200" d="M429 1600q294 350 394 350t161.5 -50t111.5 -50q100 0 177 100l273 -100q-294 -350 -394 -350t-161.5 50t-111.5 50q-100 0 -177 -100z" />
<glyph unicode="&#xa1;" horiz-adv-x="500" d="M0 0l281 1050h350l-281 -1050h-350zM319 1181q0 8 3 19l40 150q13 50 63 50h250q40 0 40 -31q0 -9 -3 -19l-40 -150q-14 -50 -64 -50h-250q-39 0 -39 31z" />
<glyph unicode="&#xa2;" horiz-adv-x="1200" d="M138 449q0 67 23 151l67 250q107 400 507 400l40 150h350l-40 -150h301l-54 -200h-451q-250 0 -303 -200l-67 -250q-10 -36 -10 -65q0 -135 206 -135h450l-53 -200h-300l-54 -200h-350l54 200q-316 0 -316 249z" />
<glyph unicode="&#xa3;" d="M0 0l54 200h200l107 400h-200l53 200h203q203 600 758 600h400l-53 -200h-300q-350 0 -458 -400h550l-53 -200h-550l-107 -400h650l-54 -200h-1200z" />
<glyph unicode="&#xa4;" d="M4 200l345 307q-20 52 -20 111q0 51 15 107q33 121 122 218l-181 307h400l72 -122q74 22 151 22q78 0 140 -22l137 122h400l-345 -307q20 -51 20 -109q0 -52 -16 -109q-32 -121 -121 -218l181 -307h-400l-72 122q-74 -22 -152 -22q-77 0 -140 22l-136 -122h-400zM677 612 q0 -25 4 -46q12 -66 53 -66t88 66t72 159q17 64 17 115q0 23 -3 44q-12 66 -53 66q-42 0 -89 -66t-72 -159q-17 -63 -17 -113z" />
<glyph unicode="&#xa5;" horiz-adv-x="1400" d="M232 798q0 67 23 152l120 450h350l-120 -450q-10 -36 -10 -65q0 -135 206 -135h50q250 0 304 200l120 450h350l-120 -450q-108 -400 -508 -400h-50l-40 -150h200l-53 -200h-200l-54 -200h-349l54 200h-201l53 200h200l40 150h-49q-316 0 -316 248z" />
<glyph unicode="&#xa6;" horiz-adv-x="500" d="M-54 -200l215 800h350l-215 -800h-350zM214 800l215 800h350l-215 -800h-350z" />
<glyph unicode="&#xa7;" d="M-54 -200l54 200h600q250 0 304 200l45 171q-128 -71 -269 -71q-186 0 -284 125q-67 84 -67 193q0 19 2 39q-86 62 -86 191q0 67 23 152l54 200q107 400 507 400h800l-54 -200h-600q-250 0 -303 -200l-33 -121q129 71 269 71q186 0 285 -124q66 -85 66 -193 q0 -44 -11 -93q82 -62 82 -189q0 -66 -23 -151l-53 -200q-108 -400 -508 -400h-800zM677 612q0 -25 4 -46q12 -66 53 -66t88 66t72 159q17 64 17 115q0 23 -3 44q-12 66 -53 66q-42 0 -89 -66t-72 -159q-17 -63 -17 -113z" />
<glyph unicode="&#xa8;" horiz-adv-x="1150" d="M426 1581q0 8 3 19l40 150q13 50 63 50h250q40 0 40 -31q0 -9 -3 -19l-40 -150q-14 -50 -64 -50h-250q-39 0 -39 31zM1076 1581q0 8 3 19l40 150q13 50 63 50h250q40 0 40 -31q0 -9 -3 -19l-40 -150q-14 -50 -64 -50h-250q-39 0 -39 31z" />
<glyph unicode="&#xa9;" horiz-adv-x="1200" d="M259 896q0 73 22 154q61 228 258 389t415 161q217 0 328 -161q71 -104 71 -235q0 -73 -22 -154q-61 -228 -258 -389t-414 -161q-218 0 -328 161q-72 104 -72 235zM363 924q0 -107 58 -192q89 -132 265 -132t335.5 132t209.5 318q18 67 18 127q0 106 -57 191 q-89 132 -265 132t-336 -132t-210 -318q-18 -67 -18 -126zM434 904q0 63 22 146q94 350 394 350h300l-27 -100h-250q-175 0 -242 -250q-19 -69 -19 -119q0 -131 127 -131h250l-26 -100h-300q-229 0 -229 204z" />
<glyph unicode="&#xaa;" horiz-adv-x="1650" d="M0 200v1100q0 200 200 200h1100q200 0 200 -200v-1100q0 -200 -200 -200h-1100q-200 0 -200 200zM25 200q1 -175 175 -175h1101q174 0 174 176v1099q0 175 -175 175h-1100q-174 0 -175 -175v-1100z" />
<glyph unicode="&#xab;" horiz-adv-x="1600" d="M194 725l591 525h400l-591 -525l310 -525h-400zM794 725l591 525h400l-591 -525l310 -525h-400z" />
<glyph unicode="&#xac;" horiz-adv-x="1014" d="M266 667l27 100h840l-132 -491l-1 -1h-98l105 392h-741z" />
<glyph unicode="&#xad;" horiz-adv-x="1300" d="M161 600l53 200h1150l-53 -200h-1150z" />
<glyph unicode="&#xae;" horiz-adv-x="1200" d="M259 896q0 73 22 154q61 228 258 389t415 161q217 0 328 -161q71 -104 71 -235q0 -73 -22 -154q-61 -228 -258 -389t-414 -161q-218 0 -328 161q-72 104 -72 235zM364 925q0 -108 57 -193q0 -1 1 -2l170 639l-1 -1q-160 -132 -210 -318q-17 -66 -17 -125zM445 700 q88 -100 241 -100q154 0 295 101l-143 -1l53 199q5 18 5 32q0 68 -103 68h-125l-80 -299h-143zM633 1400h367q158 0 158 -125q0 -33 -11 -75q-27 -100 -91 -150q21 -29 21 -75q0 -33 -11 -76l-45 -167h1q160 132 209 318q18 67 18 127q0 106 -57 191q-89 132 -265 132 q-153 0 -294 -100zM695 1100h125q125 0 152 100q4 17 4 31q0 69 -103 69h-125z" />
<glyph unicode="&#xaf;" horiz-adv-x="1500" d="M375 1400l55 200h1499l-54 -200h-1500z" />
<glyph unicode="&#xb0;" horiz-adv-x="674" d="M361 1087q0 37 11 77q31 116 134 197t219 81q115 0 175 -81q39 -54 39 -122q0 -36 -11 -75q-31 -114 -135 -196t-219 -82q-117 0 -175 81q-38 53 -38 120zM434 1106q0 -51 29 -90q45 -60 132 -60t163 60t100 147q8 30 8 57q0 51 -29 91q-44 61 -130 61t-164 -61 t-101 -148q-8 -30 -8 -57z" />
<glyph unicode="&#xb1;" horiz-adv-x="1650" d="M0 200v1100q0 200 200 200h1100q200 0 200 -200v-1100q0 -200 -200 -200h-1100q-200 0 -200 200zM25 200q1 -175 175 -175h1101q174 0 174 176v1099q0 175 -175 175h-1100q-174 0 -175 -175v-1100z" />
<glyph unicode="&#xb2;" horiz-adv-x="1650" d="M0 200v1100q0 200 200 200h1100q200 0 200 -200v-1100q0 -200 -200 -200h-1100q-200 0 -200 200zM25 200q1 -175 175 -175h1101q174 0 174 176v1099q0 175 -175 175h-1100q-174 0 -175 -175v-1100z" />
<glyph unicode="&#xb3;" horiz-adv-x="1650" d="M0 200v1100q0 200 200 200h1100q200 0 200 -200v-1100q0 -200 -200 -200h-1100q-200 0 -200 200zM25 200q1 -175 175 -175h1101q174 0 174 176v1099q0 175 -175 175h-1100q-174 0 -175 -175v-1100z" />
<glyph unicode="&#xb4;" horiz-adv-x="800" d="M412 1531q0 9 3 19q271 450 721 450q40 0 40 -31q0 -9 -3 -19q-271 -450 -721 -450q-40 0 -40 31z" />
<glyph unicode="&#xb5;" d="M-93 -350l374 1400h350l-227 -850h250q250 0 303 200l174 650h350l-174 -650q-107 -400 -507 -400h-450l-94 -350h-349z" />
<glyph unicode="&#xb6;" horiz-adv-x="1024" d="M370 989q0 45 14 97q42 157 175.5 253t311.5 96h443l-19 -70h-127l-366 -1365h-82l366 1365h-166l-366 -1365h-84l198 738q-172 8 -248 103q-50 61 -50 148z" />
<glyph unicode="&#xb7;" horiz-adv-x="500" d="M171 631q0 9 3 19l40 150q14 50 64 50h250q39 0 39 -31q0 -8 -3 -19l-40 -150q-13 -50 -63 -50h-250q-40 0 -40 31z" />
<glyph unicode="&#xb8;" horiz-adv-x="750" d="M-107 -400l53 200q250 0 304 200h350q-107 -400 -507 -400h-200z" />
<glyph unicode="&#xb9;" horiz-adv-x="1650" d="M0 200v1100q0 200 200 200h1100q200 0 200 -200v-1100q0 -200 -200 -200h-1100q-200 0 -200 200zM25 200q1 -175 175 -175h1101q174 0 174 176v1099q0 175 -175 175h-1100q-174 0 -175 -175v-1100z" />
<glyph unicode="&#xba;" horiz-adv-x="1650" d="M0 200v1100q0 200 200 200h1100q200 0 200 -200v-1100q0 -200 -200 -200h-1100q-200 0 -200 200zM25 200q1 -175 175 -175h1101q174 0 174 176v1099q0 175 -175 175h-1100q-174 0 -175 -175v-1100z" />
<glyph unicode="&#xbb;" horiz-adv-x="1600" d="M54 200l590 525l-309 525h400l309 -525l-590 -525h-400zM654 200l590 525l-309 525h400l309 -525l-590 -525h-400z" />
<glyph unicode="&#xbc;" horiz-adv-x="1650" d="M0 200v1100q0 200 200 200h1100q200 0 200 -200v-1100q0 -200 -200 -200h-1100q-200 0 -200 200zM25 200q1 -175 175 -175h1101q174 0 174 176v1099q0 175 -175 175h-1100q-174 0 -175 -175v-1100z" />
<glyph unicode="&#xbd;" horiz-adv-x="1650" d="M0 200v1100q0 200 200 200h1100q200 0 200 -200v-1100q0 -200 -200 -200h-1100q-200 0 -200 200zM25 200q1 -175 175 -175h1101q174 0 174 176v1099q0 175 -175 175h-1100q-174 0 -175 -175v-1100z" />
<glyph unicode="&#xbe;" horiz-adv-x="1650" d="M0 200v1100q0 200 200 200h1100q200 0 200 -200v-1100q0 -200 -200 -200h-1100q-200 0 -200 200zM25 200q1 -175 175 -175h1101q174 0 174 176v1099q0 175 -175 175h-1100q-174 0 -175 -175v-1100z" />
<glyph unicode="&#xbf;" d="M84 249q0 67 23 151q107 400 507 400q250 0 304 200l13 50h350l-13 -50q-107 -400 -507 -400q-250 0 -304 -200q-9 -35 -9 -64q0 -136 206 -136h600l-54 -200h-800q-316 0 -316 249zM969 1181q0 8 3 19l40 150q13 50 63 50h250q40 0 40 -31q0 -9 -3 -19l-40 -150 q-14 -50 -64 -50h-250q-39 0 -39 31z" />
<glyph unicode="&#xc0;" horiz-adv-x="1500" d="M0 0l188 700q187 700 787 700h750l-375 -1400h-350l107 400h-650l-107 -400h-350zM511 600h650l161 600h-300q-350 0 -484 -500zM873 1950q13 50 63 50q450 0 479 -450q-13 -50 -63 -50q-450 0 -479 450z" />
<glyph unicode="&#xc1;" horiz-adv-x="1500" d="M0 0l188 700q187 700 787 700h750l-375 -1400h-350l107 400h-650l-107 -400h-350zM511 600h650l161 600h-300q-350 0 -484 -500zM762 1531q0 9 3 19q271 450 721 450q40 0 40 -31q0 -9 -3 -19q-271 -450 -721 -450q-40 0 -40 31z" />
<glyph unicode="&#xc2;" horiz-adv-x="1500" d="M0 0l188 700q187 700 787 700h750l-375 -1400h-350l107 400h-650l-107 -400h-350zM511 600h650l161 600h-300q-350 0 -484 -500zM602 1500l484 500h300l216 -500h-350l-96 200l-204 -200h-350z" />
<glyph unicode="&#xc3;" horiz-adv-x="1500" d="M0 0l188 700q187 700 787 700h750l-375 -1400h-350l107 400h-650l-107 -400h-350zM511 600h650l161 600h-300q-350 0 -484 -500zM579 1600q294 350 394 350t161.5 -50t111.5 -50q100 0 177 100l273 -100q-294 -350 -394 -350t-161.5 50t-111.5 50q-100 0 -177 -100z" />
<glyph unicode="&#xc4;" horiz-adv-x="1500" d="M0 0l188 700q187 700 787 700h750l-375 -1400h-350l107 400h-650l-107 -400h-350zM511 600h650l161 600h-300q-350 0 -484 -500zM626 1581q0 8 3 19l40 150q13 50 63 50h250q40 0 40 -31q0 -9 -3 -19l-40 -150q-14 -50 -64 -50h-250q-39 0 -39 31zM1276 1581q0 8 3 19 l40 150q13 50 63 50h250q40 0 40 -31q0 -9 -3 -19l-40 -150q-14 -50 -64 -50h-250q-39 0 -39 31z" />
<glyph unicode="&#xc5;" horiz-adv-x="1500" d="M0 0l188 700q187 700 787 700h750l-375 -1400h-350l107 400h-650l-107 -400h-350zM511 600h650l161 600h-300q-350 0 -484 -500zM926 1581q0 8 3 19l40 150q13 50 63 50h250q40 0 40 -31q0 -9 -3 -19l-40 -150q-14 -50 -64 -50h-250q-39 0 -39 31z" />
<glyph unicode="&#xc6;" horiz-adv-x="1950" d="M0 0l188 700q187 700 787 700h1200l-53 -200h-750l-108 -400h550l-53 -200h-550l-107 -400h750l-54 -200h-1100l107 400h-350l-107 -400h-350zM511 600h350l161 600q-350 0 -484 -500z" />
<glyph unicode="&#xc7;" d="M140 389q0 133 48 311q187 700 787 700h600l-53 -200h-500q-350 0 -484 -500q-37 -138 -37 -239q0 -261 253 -261h500l-54 -200h-300q-107 -400 -507 -400h-200l53 200q250 0 304 200q-410 0 -410 389z" />
<glyph unicode="&#xc8;" d="M143 406q0 127 45 294q187 700 787 700h600l-53 -200h-500q-313 0 -454 -400h746l-53 -200h-746q-14 -76 -14 -138q0 -262 253 -262h500l-54 -200h-600q-457 0 -457 406zM773 1950q13 50 63 50q450 0 479 -450q-13 -50 -63 -50q-450 0 -479 450z" />
<glyph unicode="&#xc9;" d="M143 406q0 127 45 294q187 700 787 700h600l-53 -200h-500q-313 0 -454 -400h746l-53 -200h-746q-14 -76 -14 -138q0 -262 253 -262h500l-54 -200h-600q-457 0 -457 406zM712 1531q0 9 3 19q271 450 721 450q40 0 40 -31q0 -9 -3 -19q-271 -450 -721 -450q-40 0 -40 31z " />
<glyph unicode="&#xca;" d="M143 406q0 127 45 294q187 700 787 700h600l-53 -200h-500q-313 0 -454 -400h746l-53 -200h-746q-14 -76 -14 -138q0 -262 253 -262h500l-54 -200h-600q-457 0 -457 406zM502 1500l484 500h300l216 -500h-350l-96 200l-204 -200h-350z" />
<glyph unicode="&#xcb;" d="M143 406q0 127 45 294q187 700 787 700h600l-53 -200h-500q-313 0 -454 -400h746l-53 -200h-746q-14 -76 -14 -138q0 -262 253 -262h500l-54 -200h-600q-457 0 -457 406zM526 1581q0 8 3 19l40 150q13 50 63 50h250q40 0 40 -31q0 -9 -3 -19l-40 -150q-14 -50 -64 -50 h-250q-39 0 -39 31zM1176 1581q0 8 3 19l40 150q13 50 63 50h250q40 0 40 -31q0 -9 -3 -19l-40 -150q-14 -50 -64 -50h-250q-39 0 -39 31z" />
<glyph unicode="&#xcc;" horiz-adv-x="500" d="M1 0l374 1400h350l-375 -1400h-349zM323 1950q13 50 63 50q450 0 479 -450q-13 -50 -63 -50q-450 0 -479 450z" />
<glyph unicode="&#xcd;" horiz-adv-x="500" d="M1 0l374 1400h350l-375 -1400h-349zM262 1531q0 9 3 19q271 450 721 450q40 0 40 -31q0 -9 -3 -19q-271 -450 -721 -450q-40 0 -40 31z" />
<glyph unicode="&#xce;" horiz-adv-x="500" d="M1 0l374 1400h350l-375 -1400h-349zM77 1500l484 500h300l216 -500h-350l-96 200l-204 -200h-350z" />
<glyph unicode="&#xcf;" horiz-adv-x="500" d="M1 0l374 1400h350l-375 -1400h-349zM101 1581q0 8 3 19l40 150q13 50 63 50h250q40 0 40 -31q0 -9 -3 -19l-40 -150q-14 -50 -64 -50h-250q-39 0 -39 31zM751 1581q0 8 3 19l40 150q13 50 63 50h250q40 0 40 -31q0 -9 -3 -19l-40 -150q-14 -50 -64 -50h-250q-39 0 -39 31 z" />
<glyph unicode="&#xd0;" horiz-adv-x="1500" d="M147 550l67 250h200l161 600h550q457 0 457 -407q0 -127 -44 -293q-188 -700 -788 -700h-549l147 550h-201zM604 200h100q350 0 484 500q37 138 37 239q0 261 -253 261h-100l-108 -400h250l-67 -250h-250z" />
<glyph unicode="&#xd1;" horiz-adv-x="1500" d="M1 0l374 1400h750q457 0 457 -407q0 -127 -44 -293l-188 -700h-350l188 700q37 138 37 239q0 261 -253 261h-300l-322 -1200h-349zM579 1600q294 350 394 350t161.5 -50t111.5 -50q100 0 177 100l273 -100q-294 -350 -394 -350t-161.5 50t-111.5 50q-100 0 -177 -100z " />
<glyph unicode="&#xd2;" horiz-adv-x="1550" d="M144 407q0 127 44 293q188 700 788 700h200q457 0 457 -407q0 -127 -44 -293q-188 -700 -788 -700h-200q-457 0 -457 407zM502 461q0 -261 253 -261q350 0 484 500q37 138 37 239q0 261 -253 261q-350 0 -484 -500q-37 -138 -37 -239zM873 1950q13 50 63 50 q450 0 479 -450q-13 -50 -63 -50q-450 0 -479 450z" />
<glyph unicode="&#xd3;" horiz-adv-x="1550" d="M144 407q0 127 44 293q188 700 788 700h200q457 0 457 -407q0 -127 -44 -293q-188 -700 -788 -700h-200q-457 0 -457 407zM502 461q0 -261 253 -261q350 0 484 500q37 138 37 239q0 261 -253 261q-350 0 -484 -500q-37 -138 -37 -239zM762 1531q0 9 3 19q271 450 721 450 q40 0 40 -31q0 -9 -3 -19q-271 -450 -721 -450q-40 0 -40 31z" />
<glyph unicode="&#xd4;" horiz-adv-x="1550" d="M144 407q0 127 44 293q188 700 788 700h200q457 0 457 -407q0 -127 -44 -293q-188 -700 -788 -700h-200q-457 0 -457 407zM502 461q0 -261 253 -261q350 0 484 500q37 138 37 239q0 261 -253 261q-350 0 -484 -500q-37 -138 -37 -239zM602 1500l484 500h300l216 -500 h-350l-96 200l-204 -200h-350z" />
<glyph unicode="&#xd5;" horiz-adv-x="1550" d="M144 407q0 127 44 293q188 700 788 700h200q457 0 457 -407q0 -127 -44 -293q-188 -700 -788 -700h-200q-457 0 -457 407zM502 461q0 -261 253 -261q350 0 484 500q37 138 37 239q0 261 -253 261q-350 0 -484 -500q-37 -138 -37 -239zM629 1600q294 350 394 350 t161.5 -50t111.5 -50q100 0 177 100l273 -100q-294 -350 -394 -350t-161.5 50t-111.5 50q-100 0 -177 -100z" />
<glyph unicode="&#xd6;" horiz-adv-x="1550" d="M144 407q0 127 44 293q188 700 788 700h200q457 0 457 -407q0 -127 -44 -293q-188 -700 -788 -700h-200q-457 0 -457 407zM502 461q0 -261 253 -261q350 0 484 500q37 138 37 239q0 261 -253 261q-350 0 -484 -500q-37 -138 -37 -239zM626 1581q0 8 3 19l40 150 q13 50 63 50h250q40 0 40 -31q0 -9 -3 -19l-40 -150q-14 -50 -64 -50h-250q-39 0 -39 31zM1276 1581q0 8 3 19l40 150q13 50 63 50h250q40 0 40 -31q0 -9 -3 -19l-40 -150q-14 -50 -64 -50h-250q-39 0 -39 31z" />
<glyph unicode="&#xd7;" horiz-adv-x="1300" d="M4 200l559 500l-291 500h400l154 -265l296 265h400l-559 -500l291 -500h-400l-154 265l-296 -265h-400z" />
<glyph unicode="&#xd8;" horiz-adv-x="1550" d="M-50 0l227 216q-34 80 -34 191q0 127 45 293q188 700 788 700h200q126 0 217 -31l32 31h400l-226 -215q34 -81 34 -192q0 -127 -44 -293q-188 -700 -788 -700h-200q-127 0 -219 31l-32 -31h-400zM505 527l671 637q-59 36 -153 36q-350 0 -484 -500q-26 -96 -34 -173z M600 237q60 -37 155 -37q350 0 484 500q26 97 33 175z" />
<glyph unicode="&#xd9;" horiz-adv-x="1550" d="M144 407q0 127 44 293l187 701l350 -1l-187 -700h1q-37 -138 -37 -239q0 -261 253 -261q350 0 484 500l186 699l350 1l-186 -700q-188 -700 -788 -700h-200q-457 0 -457 407zM873 1950q13 50 63 50q450 0 479 -450q-13 -50 -63 -50q-450 0 -479 450z" />
<glyph unicode="&#xda;" horiz-adv-x="1550" d="M144 407q0 127 44 293l187 701l350 -1l-187 -700h1q-37 -138 -37 -239q0 -261 253 -261q350 0 484 500l186 699l350 1l-186 -700q-188 -700 -788 -700h-200q-457 0 -457 407zM762 1531q0 9 3 19q271 450 721 450q40 0 40 -31q0 -9 -3 -19q-271 -450 -721 -450 q-40 0 -40 31z" />
<glyph unicode="&#xdb;" horiz-adv-x="1550" d="M144 407q0 127 44 293l187 701l350 -1l-187 -700h1q-37 -138 -37 -239q0 -261 253 -261q350 0 484 500l186 699l350 1l-186 -700q-188 -700 -788 -700h-200q-457 0 -457 407zM602 1500l484 500h300l216 -500h-350l-96 200l-204 -200h-350z" />
<glyph unicode="&#xdc;" horiz-adv-x="1550" d="M144 407q0 127 44 293l187 701l350 -1l-187 -700h1q-37 -138 -37 -239q0 -261 253 -261q350 0 484 500l186 699l350 1l-186 -700q-188 -700 -788 -700h-200q-457 0 -457 407zM626 1581q0 8 3 19l40 150q13 50 63 50h250q40 0 40 -31q0 -9 -3 -19l-40 -150 q-14 -50 -64 -50h-250q-39 0 -39 31zM1276 1581q0 8 3 19l40 150q13 50 63 50h250q40 0 40 -31q0 -9 -3 -19l-40 -150q-14 -50 -64 -50h-250q-39 0 -39 31z" />
<glyph unicode="&#xdd;" horiz-adv-x="1400" d="M218 749q0 67 23 151l134 500h350l-134 -500q-9 -35 -9 -64q0 -136 206 -136h50q250 0 303 200l134 500h350l-134 -500q-107 -400 -507 -400h-50l-134 -500h-349l133 500h-49q-317 0 -317 249zM712 1531q0 9 3 19q271 450 721 450q40 0 40 -31q0 -9 -3 -19 q-271 -450 -721 -450q-40 0 -40 31z" />
<glyph unicode="&#xde;" d="M1 0l294 1100l80 300h350l-80 -300h450q316 0 316 -249q0 -67 -23 -151q-108 -400 -508 -400h-450l-80 -300h-349zM484 500h250q250 0 304 200q9 35 9 64q0 136 -206 136h-250z" />
<glyph unicode="&#xdf;" d="M0 0l268 1000q107 400 507 400h400q316 0 316 -249q0 -67 -23 -151q-54 -200 -180 -300q42 -57 42 -148q0 -67 -23 -152q-107 -400 -507 -400h-200l54 200q250 0 303 200q10 36 10 65q0 135 -206 135l53 200q250 0 304 200q10 36 10 65q0 135 -206 135q-250 0 -304 -200 l-268 -1000h-350z" />
<glyph unicode="&#xe0;" d="M68 216q0 39 12 84l14 51q79 294 529 294h250q150 0 178 105q4 15 4 28q0 72 -127 72h-700l53 200h750q377 0 377 -228q0 -44 -14 -97l-194 -725h-750q-382 0 -382 216zM426 273q0 -73 128 -73h350l67 251l-350 -1q-152 -5 -177 -100l-14 -50q-4 -15 -4 -27zM729 1600 q13 50 63 50q450 0 480 -450q-14 -50 -64 -50q-450 0 -479 450z" />
<glyph unicode="&#xe1;" d="M68 216q0 39 12 84l14 51q79 294 529 294h250q150 0 178 105q4 15 4 28q0 72 -127 72h-700l53 200h750q377 0 377 -228q0 -44 -14 -97l-194 -725h-750q-382 0 -382 216zM426 273q0 -73 128 -73h350l67 251l-350 -1q-152 -5 -177 -100l-14 -50q-4 -15 -4 -27zM619 1181 q0 8 3 19q270 450 720 450q40 0 40 -31q0 -9 -3 -19q-271 -450 -721 -450q-39 0 -39 31z" />
<glyph unicode="&#xe2;" d="M68 216q0 39 12 84l14 51q79 294 529 294h250q150 0 178 105q4 15 4 28q0 72 -127 72h-700l53 200h750q377 0 377 -228q0 -44 -14 -97l-194 -725h-750q-382 0 -382 216zM408 1150l484 500h300l216 -500h-350l-96 200l-204 -200h-350zM426 273q0 -73 128 -73h350l67 251 l-350 -1q-152 -5 -177 -100l-14 -50q-4 -15 -4 -27z" />
<glyph unicode="&#xe3;" d="M68 216q0 39 12 84l14 51q79 294 529 294h250q150 0 178 105q4 15 4 28q0 72 -127 72h-700l53 200h750q377 0 377 -228q0 -44 -14 -97l-194 -725h-750q-382 0 -382 216zM426 273q0 -73 128 -73h350l67 251l-350 -1q-152 -5 -177 -100l-14 -50q-4 -15 -4 -27zM435 1250 q294 350 394 350t161.5 -50t111.5 -50q100 0 177 100l273 -100q-294 -350 -394 -350t-161.5 50t-111.5 50q-100 0 -177 -100z" />
<glyph unicode="&#xe4;" d="M68 216q0 39 12 84l14 51q79 294 529 294h250q150 0 178 105q4 15 4 28q0 72 -127 72h-700l53 200h750q377 0 377 -228q0 -44 -14 -97l-194 -725h-750q-382 0 -382 216zM419 1181q0 8 3 19l40 150q13 50 63 50h250q40 0 40 -31q0 -9 -3 -19l-40 -150q-14 -50 -64 -50 h-250q-39 0 -39 31zM426 273q0 -73 128 -73h350l67 251l-350 -1q-152 -5 -177 -100l-14 -50q-4 -15 -4 -27zM1069 1181q0 8 3 19l40 150q13 50 63 50h250q40 0 40 -31q0 -9 -3 -19l-40 -150q-14 -50 -64 -50h-250q-39 0 -39 31z" />
<glyph unicode="&#xe5;" d="M68 216q0 39 12 84l14 51q79 294 529 294h250q150 0 178 105q4 15 4 28q0 72 -127 72h-700l53 200h750q377 0 377 -228q0 -44 -14 -97l-194 -725h-750q-382 0 -382 216zM426 273q0 -73 128 -73h350l67 251l-350 -1q-152 -5 -177 -100l-14 -50q-4 -15 -4 -27zM719 1181 q0 8 3 19l40 150q13 50 63 50h250q40 0 40 -31q0 -9 -3 -19l-40 -150q-14 -50 -64 -50h-250q-39 0 -39 31z" />
<glyph unicode="&#xe6;" horiz-adv-x="1800" d="M68 216q0 39 12 84l14 51q79 294 529 294h50q150 0 178 105q4 15 4 28q0 72 -127 72h-500l53 200h550q158 0 251 -40q103 40 249 40h150q382 0 382 -216q0 -39 -12 -84l-13 -50q-81 -300 -531 -300h-50q-150 0 -177 -100q-4 -15 -4 -27q0 -73 128 -73h500l-54 -200h-550 q-53 0 -99 5l-1 -5h-550q-382 0 -382 216zM426 273q0 -73 128 -73h150l67 251l-150 -1q-152 -5 -177 -100l-14 -50q-4 -15 -4 -27zM1159 595q49 5 102 5h50q150 0 177 100l13 50q4 15 4 28q0 72 -127 72q-150 0 -178 -102z" />
<glyph unicode="&#xe7;" horiz-adv-x="1200" d="M84 249q0 67 23 151l67 250q107 400 507 400h651l-53 -200h-451q-250 0 -304 -200l-67 -250q-9 -35 -9 -64q0 -136 206 -136h450l-53 -200h-251q-107 -400 -507 -400h-200l53 200q250 0 304 200h-50q-316 0 -316 249z" />
<glyph unicode="&#xe8;" d="M73 228q0 44 14 97l114 425q80 300 480 300h350q382 0 382 -216q0 -39 -12 -84l-13 -50q-81 -300 -531 -300h-250q-150 0 -177 -100q-4 -15 -4 -27q0 -73 128 -73h700l-54 -200h-750q-377 0 -377 228zM509 595q49 5 102 5h250q150 0 177 100l13 50q4 15 4 28 q0 72 -127 72h-200q-150 0 -178 -102zM729 1600q13 50 63 50q450 0 480 -450q-14 -50 -64 -50q-450 0 -479 450z" />
<glyph unicode="&#xe9;" d="M73 228q0 44 14 97l114 425q80 300 480 300h350q382 0 382 -216q0 -39 -12 -84l-13 -50q-81 -300 -531 -300h-250q-150 0 -177 -100q-4 -15 -4 -27q0 -73 128 -73h700l-54 -200h-750q-377 0 -377 228zM509 595q49 5 102 5h250q150 0 177 100l13 50q4 15 4 28 q0 72 -127 72h-200q-150 0 -178 -102zM619 1181q0 8 3 19q270 450 720 450q40 0 40 -31q0 -9 -3 -19q-271 -450 -721 -450q-39 0 -39 31z" />
<glyph unicode="&#xea;" d="M73 228q0 44 14 97l114 425q80 300 480 300h350q382 0 382 -216q0 -39 -12 -84l-13 -50q-81 -300 -531 -300h-250q-150 0 -177 -100q-4 -15 -4 -27q0 -73 128 -73h700l-54 -200h-750q-377 0 -377 228zM408 1150l484 500h300l216 -500h-350l-96 200l-204 -200h-350z M509 595q49 5 102 5h250q150 0 177 100l13 50q4 15 4 28q0 72 -127 72h-200q-150 0 -178 -102z" />
<glyph unicode="&#xeb;" d="M73 228q0 44 14 97l114 425q80 300 480 300h350q382 0 382 -216q0 -39 -12 -84l-13 -50q-81 -300 -531 -300h-250q-150 0 -177 -100q-4 -15 -4 -27q0 -73 128 -73h700l-54 -200h-750q-377 0 -377 228zM419 1181q0 8 3 19l40 150q13 50 63 50h250q40 0 40 -31q0 -9 -3 -19 l-40 -150q-14 -50 -64 -50h-250q-39 0 -39 31zM509 595q49 5 102 5h250q150 0 177 100l13 50q4 15 4 28q0 72 -127 72h-200q-150 0 -178 -102zM1069 1181q0 8 3 19l40 150q13 50 63 50h250q40 0 40 -31q0 -9 -3 -19l-40 -150q-14 -50 -64 -50h-250q-39 0 -39 31z" />
<glyph unicode="&#xec;" horiz-adv-x="500" d="M0 0l281 1050h350l-281 -1050h-350zM229 1600q13 50 63 50q450 0 480 -450q-14 -50 -64 -50q-450 0 -479 450z" />
<glyph unicode="&#xed;" horiz-adv-x="500" d="M0 0l281 1050h350l-281 -1050h-350zM169 1181q0 8 3 19q270 450 720 450q40 0 40 -31q0 -9 -3 -19q-271 -450 -721 -450q-39 0 -39 31z" />
<glyph unicode="&#xee;" horiz-adv-x="500" d="M-17 1150l484 500h300l216 -500h-350l-96 200l-204 -200h-350zM0 0l281 1050h350l-281 -1050h-350z" />
<glyph unicode="&#xef;" horiz-adv-x="500" d="M-6 1181q0 8 3 19l40 150q13 50 63 50h250q40 0 40 -31q0 -9 -3 -19l-40 -150q-14 -50 -64 -50h-250q-39 0 -39 31zM0 0l281 1050h350l-281 -1050h-350zM644 1181q0 8 3 19l40 150q13 50 63 50h250q40 0 40 -31q0 -9 -3 -19l-40 -150q-14 -50 -64 -50h-250q-39 0 -39 31z " />
<glyph unicode="&#xf0;" horiz-adv-x="1550" d="M84 249q0 67 23 151l27 100q107 400 507 400h450l40 150h-200l54 200h200l40 150h349l-40 -150h201l-54 -200h-201l-280 -1050h-800q-316 0 -316 249zM448 336q0 -136 206 -136h250l134 500h-250q-250 0 -304 -200l-27 -100q-9 -35 -9 -64z" />
<glyph unicode="&#xf1;" d="M0 0l281 1050h800q316 0 316 -249q0 -67 -23 -151l-174 -650l-350 1l174 649q10 36 10 65q0 135 -206 135h-250l-228 -850h-350zM435 1250q294 350 394 350t161.5 -50t111.5 -50q100 0 177 100l273 -100q-294 -350 -394 -350t-161.5 50t-111.5 50q-100 0 -177 -100z" />
<glyph unicode="&#xf2;" d="M84 249q0 67 23 151l67 250q107 400 507 400h450q268 0 268 -235q0 -71 -25 -165l-67 -250q-107 -400 -507 -400h-400q-316 0 -316 249zM448 336q0 -136 206 -136q250 0 303 200l67 250q10 36 10 65q0 135 -206 135q-250 0 -304 -200l-67 -250q-9 -35 -9 -64zM729 1600 q13 50 63 50q450 0 480 -450q-14 -50 -64 -50q-450 0 -479 450z" />
<glyph unicode="&#xf3;" d="M84 249q0 67 23 151l67 250q107 400 507 400h450q268 0 268 -235q0 -71 -25 -165l-67 -250q-107 -400 -507 -400h-400q-316 0 -316 249zM448 336q0 -136 206 -136q250 0 303 200l67 250q10 36 10 65q0 135 -206 135q-250 0 -304 -200l-67 -250q-9 -35 -9 -64zM619 1181 q0 8 3 19q270 450 720 450q40 0 40 -31q0 -9 -3 -19q-271 -450 -721 -450q-39 0 -39 31z" />
<glyph unicode="&#xf4;" d="M84 249q0 67 23 151l67 250q107 400 507 400h450q268 0 268 -235q0 -71 -25 -165l-67 -250q-107 -400 -507 -400h-400q-316 0 -316 249zM408 1150l484 500h300l216 -500h-350l-96 200l-204 -200h-350zM448 336q0 -136 206 -136q250 0 303 200l67 250q10 36 10 65 q0 135 -206 135q-250 0 -304 -200l-67 -250q-9 -35 -9 -64z" />
<glyph unicode="&#xf5;" d="M84 249q0 67 23 151l67 250q107 400 507 400h450q268 0 268 -235q0 -71 -25 -165l-67 -250q-107 -400 -507 -400h-400q-316 0 -316 249zM435 1250q294 350 394 350t161.5 -50t111.5 -50q100 0 177 100l273 -100q-294 -350 -394 -350t-161.5 50t-111.5 50 q-100 0 -177 -100zM448 336q0 -136 206 -136q250 0 303 200l67 250q10 36 10 65q0 135 -206 135q-250 0 -304 -200l-67 -250q-9 -35 -9 -64z" />
<glyph unicode="&#xf6;" d="M84 249q0 67 23 151l67 250q107 400 507 400h450q268 0 268 -235q0 -71 -25 -165l-67 -250q-107 -400 -507 -400h-400q-316 0 -316 249zM419 1181q0 8 3 19l40 150q13 50 63 50h250q40 0 40 -31q0 -9 -3 -19l-40 -150q-14 -50 -64 -50h-250q-39 0 -39 31zM448 336 q0 -136 206 -136q250 0 303 200l67 250q10 36 10 65q0 135 -206 135q-250 0 -304 -200l-67 -250q-9 -35 -9 -64zM1069 1181q0 8 3 19l40 150q13 50 63 50h250q40 0 40 -31q0 -9 -3 -19l-40 -150q-14 -50 -64 -50h-250q-39 0 -39 31z" />
<glyph unicode="&#xf7;" horiz-adv-x="1300" d="M161 600l53 200h1150l-53 -200h-1150zM477 281q0 9 3 19l41 150q13 50 63 50h250q40 0 40 -31q0 -9 -3 -19l-41 -150q-13 -50 -63 -50h-250q-40 0 -40 31zM652 931q0 8 3 19l40 150q13 50 63 50h250q40 0 40 -31q0 -9 -3 -19l-40 -150q-14 -50 -64 -50h-250q-39 0 -39 31 z" />
<glyph unicode="&#xf8;" d="M-50 0l155 138q-21 47 -21 111q0 67 23 151l67 250q107 400 507 400h850l-148 -132q16 -44 16 -102q0 -72 -25 -166l-67 -250q-107 -400 -507 -400h-400q-25 0 -48 2l-2 -2h-400zM475 467l425 378q-32 5 -72 5q-250 0 -304 -200zM581 205q33 -5 73 -5q250 0 303 200 l49 183z" />
<glyph unicode="&#xf9;" d="M84 249q0 67 23 151l174 650h350l-174 -650q-9 -35 -9 -64q0 -136 206 -136q250 0 303 200l174 650h350l-174 -650q-107 -400 -507 -400h-400q-316 0 -316 249zM729 1600q13 50 63 50q450 0 480 -450q-14 -50 -64 -50q-450 0 -479 450z" />
<glyph unicode="&#xfa;" d="M84 249q0 67 23 151l174 650h350l-174 -650q-9 -35 -9 -64q0 -136 206 -136q250 0 303 200l174 650h350l-174 -650q-107 -400 -507 -400h-400q-316 0 -316 249zM619 1181q0 8 3 19q270 450 720 450q40 0 40 -31q0 -9 -3 -19q-271 -450 -721 -450q-39 0 -39 31z" />
<glyph unicode="&#xfb;" d="M84 249q0 67 23 151l174 650h350l-174 -650q-9 -35 -9 -64q0 -136 206 -136q250 0 303 200l174 650h350l-174 -650q-107 -400 -507 -400h-400q-316 0 -316 249zM408 1150l484 500h300l216 -500h-350l-96 200l-204 -200h-350z" />
<glyph unicode="&#xfc;" d="M84 249q0 67 23 151l174 650h350l-174 -650q-9 -35 -9 -64q0 -136 206 -136q250 0 303 200l174 650h350l-174 -650q-107 -400 -507 -400h-400q-316 0 -316 249zM419 1181q0 8 3 19l40 150q13 50 63 50h250q40 0 40 -31q0 -9 -3 -19l-40 -150q-14 -50 -64 -50h-250 q-39 0 -39 31zM1069 1181q0 8 3 19l40 150q13 50 63 50h250q40 0 40 -31q0 -9 -3 -19l-40 -150q-14 -50 -64 -50h-250q-39 0 -39 31z" />
<glyph unicode="&#xfd;" d="M84 249q0 67 23 151l174 649l350 -1l-174 -648q-9 -35 -9 -64q0 -136 206 -136h250l227 850h350l-281 -1050q-107 -400 -507 -400h-600l53 200h400q250 0 304 200h-450q-316 0 -316 249zM619 1181q0 8 3 19q270 450 720 450q40 0 40 -31q0 -9 -3 -19q-271 -450 -721 -450 q-39 0 -39 31z" />
<glyph unicode="&#xfe;" d="M-93 -350l361 1350l107 400h350l-94 -350h450q316 0 316 -249q0 -67 -23 -151l-67 -250q-107 -400 -507 -400h-450l-94 -350h-349zM404 200h250q250 0 303 200l67 250q10 36 10 65q0 135 -206 135h-250z" />
<glyph unicode="&#xff;" d="M84 249q0 67 23 151l174 649l350 -1l-174 -648q-9 -35 -9 -64q0 -136 206 -136h250l227 850h350l-281 -1050q-107 -400 -507 -400h-600l53 200h400q250 0 304 200h-450q-316 0 -316 249zM419 1181q0 8 3 19l40 150q13 50 63 50h250q40 0 40 -31q0 -9 -3 -19l-40 -150 q-14 -50 -64 -50h-250q-39 0 -39 31zM1069 1181q0 8 3 19l40 150q13 50 63 50h250q40 0 40 -31q0 -9 -3 -19l-40 -150q-14 -50 -64 -50h-250q-39 0 -39 31z" />
<glyph unicode="&#x2c6;" horiz-adv-x="1150" d="M402 1500l484 500h300l216 -500h-350l-96 200l-204 -200h-350z" />
<glyph unicode="&#x2dc;" horiz-adv-x="1200" d="M429 1600q294 350 394 350t161.5 -50t111.5 -50q100 0 177 100l273 -100q-294 -350 -394 -350t-161.5 50t-111.5 50q-100 0 -177 -100z" />
<glyph unicode="&#x2000;" horiz-adv-x="1000" />
<glyph unicode="&#x2001;" horiz-adv-x="2000" />
<glyph unicode="&#x2002;" horiz-adv-x="1000" />
<glyph unicode="&#x2003;" horiz-adv-x="2000" />
<glyph unicode="&#x2004;" horiz-adv-x="666" />
<glyph unicode="&#x2005;" horiz-adv-x="500" />
<glyph unicode="&#x2006;" horiz-adv-x="333" />
<glyph unicode="&#x2007;" horiz-adv-x="333" />
<glyph unicode="&#x2008;" horiz-adv-x="250" />
<glyph unicode="&#x2009;" horiz-adv-x="400" />
<glyph unicode="&#x200a;" horiz-adv-x="111" />
<glyph unicode="&#x2010;" horiz-adv-x="1300" d="M161 600l53 200h1150l-53 -200h-1150z" />
<glyph unicode="&#x2011;" horiz-adv-x="1300" d="M161 600l53 200h1150l-53 -200h-1150z" />
<glyph unicode="&#x2012;" horiz-adv-x="1300" d="M161 600l53 200h1150l-53 -200h-1150z" />
<glyph unicode="&#x2013;" horiz-adv-x="1108" d="M168 419l32 120h996l-32 -120h-996z" />
<glyph unicode="&#x2014;" horiz-adv-x="2048" d="M112 419l32 120h2048l-32 -120h-2048z" />
<glyph unicode="&#x2018;" horiz-adv-x="500" d="M305 1086q0 50 17 114l40 150q13 50 63 50h250q40 0 40 -31q0 -9 -3 -19l-107 -400q-14 -50 -64 -50q-236 0 -236 186z" />
<glyph unicode="&#x2019;" horiz-adv-x="500" d="M252 931q0 8 3 19l107 400q13 50 63 50h250q40 0 40 -31q0 -9 -3 -19l-40 -150q-81 -300 -381 -300q-39 0 -39 31z" />
<glyph unicode="&#x201a;" horiz-adv-x="500" d="M-57 -219q0 9 3 19l108 400q13 50 63 50h250q40 0 40 -31q0 -9 -3 -19l-41 -150q-80 -300 -380 -300q-40 0 -40 31z" />
<glyph unicode="&#x201c;" horiz-adv-x="950" d="M305 1086q0 50 17 114l40 150q13 50 63 50h250q40 0 40 -31q0 -9 -3 -19l-107 -400q-14 -50 -64 -50q-236 0 -236 186zM755 1086q0 50 17 114l40 150q13 50 63 50h250q40 0 40 -31q0 -9 -3 -19l-107 -400q-14 -50 -64 -50q-236 0 -236 186z" />
<glyph unicode="&#x201d;" horiz-adv-x="950" d="M252 931q0 8 3 19l107 400q13 50 63 50h250q40 0 40 -31q0 -9 -3 -19l-40 -150q-81 -300 -381 -300q-39 0 -39 31zM702 931q0 8 3 19l107 400q13 50 63 50h250q40 0 40 -31q0 -9 -3 -19l-40 -150q-81 -300 -381 -300q-39 0 -39 31z" />
<glyph unicode="&#x201e;" horiz-adv-x="950" d="M-57 -219q0 9 3 19l108 400q13 50 63 50h250q40 0 40 -31q0 -9 -3 -19l-41 -150q-80 -300 -380 -300q-40 0 -40 31zM393 -219q0 9 3 19l108 400q13 50 63 50h250q40 0 40 -31q0 -9 -3 -19l-41 -150q-80 -300 -380 -300q-40 0 -40 31z" />
<glyph unicode="&#x2022;" horiz-adv-x="850" d="M151 461q0 101 37 239q134 500 484 500q253 0 253 -261q0 -101 -37 -239q-134 -500 -484 -500q-253 0 -253 261z" />
<glyph unicode="&#x2026;" horiz-adv-x="1400" d="M10 31q0 9 3 19l41 150q13 50 63 50h250q40 0 40 -31q0 -9 -3 -19l-41 -150q-13 -50 -63 -50h-250q-40 0 -40 31zM460 31q0 9 3 19l41 150q13 50 63 50h250q40 0 40 -31q0 -9 -3 -19l-41 -150q-13 -50 -63 -50h-250q-40 0 -40 31zM910 31q0 9 3 19l41 150q13 50 63 50 h250q40 0 40 -31q0 -9 -3 -19l-41 -150q-13 -50 -63 -50h-250q-40 0 -40 31z" />
<glyph unicode="&#x202f;" horiz-adv-x="400" />
<glyph unicode="&#x2039;" horiz-adv-x="1000" d="M194 725l591 525h400l-591 -525l310 -525h-400z" />
<glyph unicode="&#x203a;" horiz-adv-x="1000" d="M54 200l590 525l-309 525h400l309 -525l-590 -525h-400z" />
<glyph unicode="&#x205f;" horiz-adv-x="500" />
<glyph unicode="&#x20ac;" d="M121 450l53 200h201q6 25 13 50q6 25 14 50h-201l54 200h224q215 450 696 450h400l-53 -200h-300q-247 0 -387 -250h620l-54 -200h-649q-7 -24 -14 -50t-13 -50h649l-53 -200h-620q6 -250 253 -250h300l-54 -200h-400q-456 0 -456 405q0 22 1 45h-224z" />
<glyph unicode="&#x2122;" horiz-adv-x="1825" d="M348 1300l27 100h625l-27 -100h-225l-160 -600h-175l160 600h-225zM888 700l187 700h675q228 0 228 -203q0 -63 -22 -147l-93 -350h-175l93 350q19 69 19 119q0 131 -127 131h-50l-160 -600h-175l160 600h-225l-160 -600h-175z" />
<glyph unicode="&#x25fc;" horiz-adv-x="1050" d="M0 0v1050h1050v-1050h-1050z" />
</font>
</defs>
</svg>
